<?xml version="1.0" encoding="UTF-8"?>
<svg id="Layer_2" data-name="Layer 2" xmlns="http://www.w3.org/2000/svg" viewBox="0 0 12 12">
  <defs>
    <style>
      .cls-1 {
        fill: #1E3050;
      }
    </style>
  </defs>
  <g id="Layer_2-2" data-name="Layer 2">
    <g id="Layer_1-2" data-name="Layer 1-2">
      <path class="cls-1" d="m6,1c2.76,0,5,2.24,5,5s-2.24,5-5,5S1,8.76,1,6,3.24,1,6,1m0-1C2.69,0,0,2.69,0,6s2.69,6,6,6,6-2.69,6-6S9.31,0,6,0h0Z"/>
      <path class="cls-1" d="m2.1,5.44c1.98.43,3.64,1.3,5.28,2.39l-2.47.37c.98-1.93,2.21-3.73,3.72-5.3.95-1,1.94-1.85,3.19-2.56l.17.11c-1.64,2.58-3.85,6.24-5.54,8.74l-.11.16-.14-.12L1.97,5.59l.13-.15h0Z"/>
    </g>
  </g>
</svg>